<?xml version="1.0" standalone="no"?>
<!DOCTYPE svg PUBLIC "-//W3C//DTD SVG 1.1//EN" "http://www.w3.org/Graphics/SVG/1.1/DTD/svg11.dtd">
<svg xmlns="http://www.w3.org/2000/svg" version="1.1" viewBox="0 0 724.6 683.62" width="724.5999755859375" height="683.6199951171875">
  <defs>
    <style>
      .cls-1 {
        opacity: .17;
      }

      .cls-2 {
        fill: #ea6b1e;
      }

      .cls-3 {
        fill: #ae1e3f;
      }
    </style>
  </defs>
  <!-- Generator: Adobe Illustrator 28.7.1, SVG Export Plug-In . SVG Version: 1.2.0 Build 142)  -->
  <g>
    <g id="Layer_1">
      <g>
        <path class="cls-3" d="M456.03,474.39c-12.88,15.58-33.54,22.71-54.1,17.64-18.74-4.63-28.7-19.91-40.36-33.87-7.44-8.91-14.88-17.82-22.32-26.72,0,0-14.21-16.99-14.21-16.99l71.15-81.07s8.84,10.97,8.84,10.97c8.6,10.68,17.21,21.35,25.81,32.03,9.05,11.23,19.91,20.99,27.52,33.39,12.42,20.24,13.24,45.77-2.34,64.63Z"/>
        <path class="cls-2" d="M495.27,220.5l-209.09,238.23c-4.11,3.85-8.81,6.83-13.87,8.87-5.06,2.02-10.46,3.08-15.98,3.08-24.41,0-44.28-19.77-44.28-44.1v-63.37c0-20.28,16.43-36.7,36.7-36.7h55.57c2.1,0,3.99-.85,5.36-2.22,1.31-1.31,2.14-3.06,2.2-5.04.02-.1.02-.22.02-.32,0-4.19-3.39-7.6-7.58-7.6h-55.57c-20.28,0-36.7-16.43-36.7-36.68v-63.39c0-24.31,19.87-44.1,44.28-44.1,11,0,21.63,4.25,29.85,11.97l54.22,50.75,84.93-89.15c9.55-8.04,21.67-12.46,34.14-12.46,15.88,0,30.8,7.01,40.91,19.25,18.02,21.83,15.78,53.87-5.12,72.96Z"/>
        <polygon class="cls-1" points="396.2 333.38 325.04 414.45 339.25 431.44 411.12 351.9 396.2 333.38"/>
      </g>
    </g>
  </g>
</svg>